<mxfile host="app.diagrams.net" modified="2024-03-29T13:52:47.041Z" agent="Mozilla/5.0 (X11; Linux x86_64) AppleWebKit/537.36 (KHTML, like Gecko) Chrome/116.0.0.0 Safari/537.36" etag="o73FE67tA2c5_GTjhsGv" version="24.2.0" type="github">
  <diagram name="Page-1" id="29X9yQcGgdXP1ez2ROOn">
    <mxGraphModel dx="1257" dy="641" grid="1" gridSize="10" guides="1" tooltips="1" connect="1" arrows="1" fold="1" page="1" pageScale="1" pageWidth="850" pageHeight="1100" math="0" shadow="0">
      <root>
        <mxCell id="0" />
        <mxCell id="1" parent="0" />
        <mxCell id="X0sqdMQ3XIA2bhM3Ga_q-32" style="edgeStyle=orthogonalEdgeStyle;rounded=0;orthogonalLoop=1;jettySize=auto;html=1;exitX=0.75;exitY=0;exitDx=0;exitDy=0;entryX=0.75;entryY=1;entryDx=0;entryDy=0;" edge="1" parent="1" source="X0sqdMQ3XIA2bhM3Ga_q-17" target="X0sqdMQ3XIA2bhM3Ga_q-1">
          <mxGeometry relative="1" as="geometry" />
        </mxCell>
        <mxCell id="X0sqdMQ3XIA2bhM3Ga_q-17" value="" style="rounded=0;whiteSpace=wrap;html=1;fillColor=#bac8d3;strokeColor=#23445d;" vertex="1" parent="1">
          <mxGeometry x="80" y="200" width="520" height="190" as="geometry" />
        </mxCell>
        <mxCell id="X0sqdMQ3XIA2bhM3Ga_q-30" style="edgeStyle=orthogonalEdgeStyle;rounded=0;orthogonalLoop=1;jettySize=auto;html=1;exitX=0.25;exitY=1;exitDx=0;exitDy=0;entryX=0.25;entryY=0;entryDx=0;entryDy=0;" edge="1" parent="1" source="X0sqdMQ3XIA2bhM3Ga_q-1" target="X0sqdMQ3XIA2bhM3Ga_q-17">
          <mxGeometry relative="1" as="geometry" />
        </mxCell>
        <mxCell id="X0sqdMQ3XIA2bhM3Ga_q-1" value="&lt;b&gt;&lt;font style=&quot;font-size: 24px;&quot;&gt;API&lt;/font&gt;&lt;/b&gt;" style="rounded=0;whiteSpace=wrap;html=1;fillColor=#d5e8d4;strokeColor=#82b366;" vertex="1" parent="1">
          <mxGeometry x="80" y="40" width="520" height="60" as="geometry" />
        </mxCell>
        <mxCell id="X0sqdMQ3XIA2bhM3Ga_q-2" value="&lt;b&gt;&lt;font style=&quot;font-size: 23px;&quot;&gt;Flask-App&lt;/font&gt;&lt;/b&gt;" style="rounded=0;whiteSpace=wrap;html=1;fillColor=#6a00ff;fontColor=#ffffff;strokeColor=#3700CC;glass=0;shadow=0;opacity=60;" vertex="1" parent="1">
          <mxGeometry x="360" y="240" width="220" height="110" as="geometry" />
        </mxCell>
        <mxCell id="X0sqdMQ3XIA2bhM3Ga_q-5" value="request" style="text;html=1;align=center;verticalAlign=middle;whiteSpace=wrap;rounded=0;fontStyle=1;fontSize=14;textShadow=0;" vertex="1" parent="1">
          <mxGeometry x="180" y="140" width="60" height="30" as="geometry" />
        </mxCell>
        <mxCell id="X0sqdMQ3XIA2bhM3Ga_q-6" value="responce" style="text;html=1;align=center;verticalAlign=middle;whiteSpace=wrap;rounded=0;fontStyle=1;fontSize=14;textShadow=0;" vertex="1" parent="1">
          <mxGeometry x="440" y="140" width="60" height="30" as="geometry" />
        </mxCell>
        <mxCell id="X0sqdMQ3XIA2bhM3Ga_q-11" value="Home-Page" style="shape=parallelogram;perimeter=parallelogramPerimeter;whiteSpace=wrap;html=1;fixedSize=1;fillColor=#d80073;strokeColor=#A50040;fontColor=#000000;fillStyle=auto;fontStyle=1;fontSize=13;" vertex="1" parent="1">
          <mxGeometry x="490" y="460" width="110" height="60" as="geometry" />
        </mxCell>
        <mxCell id="X0sqdMQ3XIA2bhM3Ga_q-12" value="&lt;b&gt;&lt;font style=&quot;font-size: 23px;&quot;&gt;DATABASE&lt;/font&gt;&lt;/b&gt;" style="shape=cylinder3;whiteSpace=wrap;html=1;boundedLbl=1;backgroundOutline=1;size=15;fillColor=#fad9d5;strokeColor=#ae4132;" vertex="1" parent="1">
          <mxGeometry x="100" y="226" width="130" height="140" as="geometry" />
        </mxCell>
        <mxCell id="X0sqdMQ3XIA2bhM3Ga_q-13" value="" style="endArrow=classic;html=1;rounded=0;entryX=-0.015;entryY=0.419;entryDx=0;entryDy=0;exitX=0.985;exitY=0.457;exitDx=0;exitDy=0;exitPerimeter=0;entryPerimeter=0;" edge="1" parent="1">
          <mxGeometry width="50" height="50" relative="1" as="geometry">
            <mxPoint x="231.34999999999997" y="250.39000000000001" as="sourcePoint" />
            <mxPoint x="360.00000000000006" y="249.99999999999997" as="targetPoint" />
          </mxGeometry>
        </mxCell>
        <mxCell id="X0sqdMQ3XIA2bhM3Ga_q-14" value="" style="endArrow=classic;html=1;rounded=0;exitX=0;exitY=0.75;exitDx=0;exitDy=0;" edge="1" parent="1">
          <mxGeometry width="50" height="50" relative="1" as="geometry">
            <mxPoint x="360" y="337.5" as="sourcePoint" />
            <mxPoint x="230" y="338" as="targetPoint" />
          </mxGeometry>
        </mxCell>
        <mxCell id="X0sqdMQ3XIA2bhM3Ga_q-15" value="APP SERVER" style="text;html=1;align=center;verticalAlign=middle;whiteSpace=wrap;rounded=0;fontStyle=1;fontSize=14;textShadow=0;" vertex="1" parent="1">
          <mxGeometry x="660" y="281" width="100" height="30" as="geometry" />
        </mxCell>
        <mxCell id="X0sqdMQ3XIA2bhM3Ga_q-16" value="query" style="text;html=1;align=center;verticalAlign=middle;whiteSpace=wrap;rounded=0;fontStyle=1;fontSize=14;textShadow=0;" vertex="1" parent="1">
          <mxGeometry x="260" y="313" width="60" height="30" as="geometry" />
        </mxCell>
        <mxCell id="X0sqdMQ3XIA2bhM3Ga_q-19" value="" style="strokeWidth=2;html=1;shape=mxgraph.flowchart.annotation_2;align=left;labelPosition=right;pointerEvents=1;direction=west;" vertex="1" parent="1">
          <mxGeometry x="610" y="201" width="50" height="190" as="geometry" />
        </mxCell>
        <mxCell id="X0sqdMQ3XIA2bhM3Ga_q-20" value="responce" style="text;html=1;align=center;verticalAlign=middle;whiteSpace=wrap;rounded=0;fontStyle=1;fontSize=14;textShadow=0;" vertex="1" parent="1">
          <mxGeometry x="260" y="226" width="60" height="30" as="geometry" />
        </mxCell>
        <mxCell id="X0sqdMQ3XIA2bhM3Ga_q-23" value="About-Page" style="shape=parallelogram;perimeter=parallelogramPerimeter;whiteSpace=wrap;html=1;fixedSize=1;fillColor=#d80073;strokeColor=#A50040;fontColor=#000000;fillStyle=auto;fontStyle=1;fontSize=13;" vertex="1" parent="1">
          <mxGeometry x="360" y="460" width="110" height="60" as="geometry" />
        </mxCell>
        <mxCell id="X0sqdMQ3XIA2bhM3Ga_q-24" value="Quote-Author" style="shape=parallelogram;perimeter=parallelogramPerimeter;whiteSpace=wrap;html=1;fixedSize=1;fillColor=#d80073;strokeColor=#A50040;fontColor=#000000;fillStyle=auto;fontStyle=1;fontSize=13;" vertex="1" parent="1">
          <mxGeometry x="230" y="460" width="110" height="60" as="geometry" />
        </mxCell>
        <mxCell id="X0sqdMQ3XIA2bhM3Ga_q-33" value="Search-Page" style="shape=parallelogram;perimeter=parallelogramPerimeter;whiteSpace=wrap;html=1;fixedSize=1;fillColor=#d80073;strokeColor=#A50040;fontColor=#000000;fillStyle=auto;fontStyle=1;fontSize=13;" vertex="1" parent="1">
          <mxGeometry x="80" y="460" width="110" height="60" as="geometry" />
        </mxCell>
        <mxCell id="X0sqdMQ3XIA2bhM3Ga_q-51" value="" style="endArrow=classic;html=1;rounded=0;entryX=0.888;entryY=0.013;entryDx=0;entryDy=0;entryPerimeter=0;" edge="1" parent="1">
          <mxGeometry width="50" height="50" relative="1" as="geometry">
            <mxPoint x="571.5" y="390" as="sourcePoint" />
            <mxPoint x="571.6799999999998" y="460.7800000000001" as="targetPoint" />
          </mxGeometry>
        </mxCell>
        <mxCell id="X0sqdMQ3XIA2bhM3Ga_q-53" value="" style="endArrow=classic;html=1;rounded=0;entryX=0.75;entryY=0;entryDx=0;entryDy=0;exitX=0.685;exitY=1.007;exitDx=0;exitDy=0;exitPerimeter=0;" edge="1" parent="1" target="X0sqdMQ3XIA2bhM3Ga_q-23">
          <mxGeometry width="50" height="50" relative="1" as="geometry">
            <mxPoint x="441.20000000000005" y="391.33000000000004" as="sourcePoint" />
            <mxPoint x="445" y="459.1" as="targetPoint" />
          </mxGeometry>
        </mxCell>
        <mxCell id="X0sqdMQ3XIA2bhM3Ga_q-54" value="" style="endArrow=classic;html=1;rounded=0;" edge="1" parent="1">
          <mxGeometry width="50" height="50" relative="1" as="geometry">
            <mxPoint x="280" y="460.81" as="sourcePoint" />
            <mxPoint x="280" y="390" as="targetPoint" />
          </mxGeometry>
        </mxCell>
        <mxCell id="X0sqdMQ3XIA2bhM3Ga_q-55" value="" style="endArrow=classic;html=1;rounded=0;entryX=0.75;entryY=0;entryDx=0;entryDy=0;" edge="1" parent="1">
          <mxGeometry width="50" height="50" relative="1" as="geometry">
            <mxPoint x="320" y="391" as="sourcePoint" />
            <mxPoint x="317.5" y="461" as="targetPoint" />
          </mxGeometry>
        </mxCell>
        <mxCell id="X0sqdMQ3XIA2bhM3Ga_q-56" value="" style="endArrow=classic;html=1;rounded=0;entryX=0.076;entryY=0.996;entryDx=0;entryDy=0;entryPerimeter=0;" edge="1" parent="1" target="X0sqdMQ3XIA2bhM3Ga_q-17">
          <mxGeometry width="50" height="50" relative="1" as="geometry">
            <mxPoint x="120" y="460" as="sourcePoint" />
            <mxPoint x="170" y="410" as="targetPoint" />
          </mxGeometry>
        </mxCell>
        <mxCell id="X0sqdMQ3XIA2bhM3Ga_q-57" value="" style="endArrow=classic;html=1;rounded=0;entryX=0.664;entryY=0.007;entryDx=0;entryDy=0;entryPerimeter=0;" edge="1" parent="1" target="X0sqdMQ3XIA2bhM3Ga_q-33">
          <mxGeometry width="50" height="50" relative="1" as="geometry">
            <mxPoint x="153" y="390" as="sourcePoint" />
            <mxPoint x="150" y="460" as="targetPoint" />
          </mxGeometry>
        </mxCell>
        <mxCell id="X0sqdMQ3XIA2bhM3Ga_q-58" value="" style="endArrow=classic;html=1;rounded=0;exitX=0.36;exitY=0.006;exitDx=0;exitDy=0;exitPerimeter=0;" edge="1" parent="1">
          <mxGeometry width="50" height="50" relative="1" as="geometry">
            <mxPoint x="404" y="459.27000000000004" as="sourcePoint" />
            <mxPoint x="404" y="390" as="targetPoint" />
          </mxGeometry>
        </mxCell>
        <mxCell id="X0sqdMQ3XIA2bhM3Ga_q-61" value="" style="endArrow=classic;html=1;rounded=0;exitX=0.372;exitY=0.006;exitDx=0;exitDy=0;exitPerimeter=0;entryX=0.866;entryY=1.015;entryDx=0;entryDy=0;entryPerimeter=0;" edge="1" parent="1" source="X0sqdMQ3XIA2bhM3Ga_q-11" target="X0sqdMQ3XIA2bhM3Ga_q-17">
          <mxGeometry width="50" height="50" relative="1" as="geometry">
            <mxPoint x="414" y="469.27000000000004" as="sourcePoint" />
            <mxPoint x="414" y="400" as="targetPoint" />
          </mxGeometry>
        </mxCell>
        <mxCell id="X0sqdMQ3XIA2bhM3Ga_q-63" value="" style="strokeWidth=2;html=1;shape=mxgraph.flowchart.annotation_2;align=left;labelPosition=right;pointerEvents=1;direction=north;" vertex="1" parent="1">
          <mxGeometry x="80" y="530" width="520" height="50" as="geometry" />
        </mxCell>
        <mxCell id="X0sqdMQ3XIA2bhM3Ga_q-66" value="&lt;b&gt;&lt;font style=&quot;font-size: 24px;&quot;&gt;Clinet&lt;/font&gt;&lt;/b&gt;" style="text;html=1;align=center;verticalAlign=middle;whiteSpace=wrap;rounded=0;" vertex="1" parent="1">
          <mxGeometry x="300" y="580" width="80" height="30" as="geometry" />
        </mxCell>
      </root>
    </mxGraphModel>
  </diagram>
</mxfile>
